HIERARCHY
ROOT Hips
{
	OFFSET 0.000000 0.000000 0.000000
	CHANNELS 6 Xposition Yposition Zposition Zrotation Xrotation Yrotation
	JOINT Spine1
	{
		OFFSET 0.000000 0.000002 -3.124066
		CHANNELS 6 Xposition Yposition Zposition Zrotation Xrotation Yrotation
		JOINT Neck
		{
			OFFSET 0.000000 0.000002 -2.490615
			CHANNELS 6 Xposition Yposition Zposition Zrotation Xrotation Yrotation
			JOINT Head
			{
				OFFSET 0.000000 0.204341 -1.583640
				CHANNELS 6 Xposition Yposition Zposition Zrotation Xrotation Yrotation
				End Site
				{
					OFFSET 0.000000 0.000000 -2.043401
				}
			}
		}
		JOINT LeftShoulder
		{
			OFFSET 0.411488 -0.054013 -2.011039
			CHANNELS 6 Xposition Yposition Zposition Zrotation Xrotation Yrotation
			JOINT LeftArm
			{
				OFFSET 1.468305 0.000000 0.000000
				CHANNELS 6 Xposition Yposition Zposition Zrotation Xrotation Yrotation
				JOINT LeftForeArm
				{
					OFFSET 2.879112 0.000000 0.000000
					CHANNELS 6 Xposition Yposition Zposition Zrotation Xrotation Yrotation
					JOINT LeftHand
					{
						OFFSET 2.675755 0.000000 0.000000
						CHANNELS 6 Xposition Yposition Zposition Zrotation Xrotation Yrotation
						End Site
						{
							OFFSET 1.532550 0.000000 0.000000
						}
					}
				}
			}
		}
		JOINT RightShoulder
		{
			OFFSET -0.405812 -0.054013 -2.011039
			CHANNELS 6 Xposition Yposition Zposition Zrotation Xrotation Yrotation
			JOINT RightArm
			{
				OFFSET -1.468305 0.000000 0.000000
				CHANNELS 6 Xposition Yposition Zposition Zrotation Xrotation Yrotation
				JOINT RightForeArm
				{
					OFFSET -2.879111 0.000000 0.000000
					CHANNELS 6 Xposition Yposition Zposition Zrotation Xrotation Yrotation
					JOINT RightHand
					{
						OFFSET -2.675757 0.000000 0.000000
						CHANNELS 6 Xposition Yposition Zposition Zrotation Xrotation Yrotation
						End Site
						{
							OFFSET -1.532550 0.000000 0.000000
						}
					}
				}
			}
		}
	}
	JOINT LeftUpLeg
	{
		OFFSET 1.021703 0.000000 0.000000
		CHANNELS 6 Xposition Yposition Zposition Zrotation Xrotation Yrotation
		JOINT LeftLeg
		{
			OFFSET 0.000000 -0.000002 4.296927
			CHANNELS 6 Xposition Yposition Zposition Zrotation Xrotation Yrotation
			JOINT LeftFoot
			{
				OFFSET 0.000000 -0.000002 4.504838
				CHANNELS 6 Xposition Yposition Zposition Zrotation Xrotation Yrotation
				JOINT LeftToeBase
				{
					OFFSET 0.000000 1.532553 0.664107
					CHANNELS 6 Xposition Yposition Zposition Zrotation Xrotation Yrotation
					End Site
					{
						OFFSET 0.000000 0.408681 0.000000
					}
				}
			}
		}
	}
	JOINT RightUpLeg
	{
		OFFSET -1.021703 0.000000 0.000000
		CHANNELS 6 Xposition Yposition Zposition Zrotation Xrotation Yrotation
		JOINT RightLeg
		{
			OFFSET 0.000000 -0.000002 4.296927
			CHANNELS 6 Xposition Yposition Zposition Zrotation Xrotation Yrotation
			JOINT RightFoot
			{
				OFFSET 0.000000 -0.000002 4.504838
				CHANNELS 6 Xposition Yposition Zposition Zrotation Xrotation Yrotation
				JOINT RightToeBase
				{
					OFFSET 0.000000 1.532553 0.664107
					CHANNELS 6 Xposition Yposition Zposition Zrotation Xrotation Yrotation
					End Site
					{
						OFFSET 0.000000 0.408681 0.000000
					}
				}
			}
		}
	}
}
MOTION
Frames: 7
Frame Time: 0.016667
0.353278 -0.484819 -8.387137 -2.321248 11.644960 1.484607 0.000000 0.000002 -3.124066 1.260539 -5.134360 4.388904 -0.000000 0.000000 -2.490616 -2.566710 5.719508 2.454552 0.000000 0.204340 -1.583639 -3.029359 9.960384 -3.548844 0.411487 -0.054014 -2.011039 -0.092890 -8.889844 21.667605 1.468303 -0.000000 0.000003 8.353392 -9.949528 -8.424301 2.879111 -0.000001 0.000000 1.958461 -9.683146 2.628847 2.675754 0.000000 0.000000 -3.917418 -9.465426 -7.756322 -0.405811 -0.054013 -2.011039 6.162874 -4.679595 -18.289303 -1.468306 0.000000 0.000000 -20.932354 21.986802 1.849133 -2.879112 -0.000001 0.000000 -66.873248 35.506742 -47.151490 -2.675759 0.000001 -0.000000 -5.605014 5.440237 -28.128932 1.021703 -0.000000 0.000000 -19.050103 -35.338449 14.124834 0.000000 -0.000002 4.296928 -6.859588 33.304860 -6.372820 -0.000001 -0.000002 4.504840 -15.106596 0.260709 -8.253558 -0.000000 1.532553 0.664107 -0.000001 0.000001 0.000001 -1.021703 0.000000 0.000000 -5.643553 -29.410474 -30.469737 0.000002 -0.000001 4.296926 15.580228 40.125258 20.193574 0.000001 -0.000002 4.504839 32.494741 -13.409643 -2.417767 -0.000000 1.532553 0.664107 -0.000001 0.000004 -0.000002 
0.360484 -0.482480 -8.380460 -2.261049 11.568241 1.495873 -0.000000 0.000002 -3.124064 1.202919 -5.052497 4.428538 0.000000 0.000000 -2.490617 -2.560072 5.749436 2.394912 0.000000 0.204341 -1.583640 -3.016242 10.007660 -3.567249 0.411487 -0.054013 -2.011037 -0.115441 -8.887611 21.639245 1.468307 -0.000000 0.000000 8.332674 -9.948068 -8.472880 2.879112 0.000000 0.000002 1.944446 -9.716082 2.634746 2.675756 -0.000001 0.000000 -3.943852 -9.494825 -7.802536 -0.405811 -0.054013 -2.011039 6.166190 -4.645136 -18.277755 -1.468305 0.000000 0.000003 -20.932269 21.914973 1.965001 -2.879113 -0.000001 -0.000001 -67.138458 35.692759 -47.190190 -2.675757 0.000000 -0.000002 -5.588477 5.442593 -27.985684 1.021703 0.000000 -0.000000 -19.024572 -35.344836 14.298586 0.000000 -0.000001 4.296925 -6.826356 33.621251 -6.620831 0.000000 -0.000002 4.504839 -15.154296 -0.090946 -8.402436 0.000000 1.532553 0.664107 -0.000008 0.000001 0.000002 -1.021703 0.000000 0.000000 -5.537804 -29.217995 -30.708770 0.000000 -0.000001 4.296925 15.943880 40.164033 20.347437 0.000001 -0.000002 4.504840 32.548075 -13.318571 -1.980875 -0.000000 1.532552 0.664107 0.000009 0.000002 0.000001 
0.368049 -0.480350 -8.373372 -2.180120 11.514037 1.483383 0.000000 0.000002 -3.124065 1.128715 -4.995678 4.491201 -0.000000 0.000002 -2.490614 -2.555069 5.796546 2.325057 -0.000000 0.204343 -1.583642 -3.003033 10.012497 -3.547430 0.411487 -0.054013 -2.011037 -0.101421 -8.902393 21.644782 1.468305 -0.000000 0.000000 8.288753 -9.919787 -8.550093 2.879112 0.000000 0.000000 1.915152 -9.762168 2.605466 2.675754 0.000000 -0.000003 -3.977097 -9.538145 -7.785313 -0.405811 -0.054013 -2.011036 6.140703 -4.642046 -18.247279 -1.468305 -0.000000 0.000000 -20.908123 21.805676 2.066230 -2.879112 -0.000001 -0.000000 -67.347858 35.948788 -47.198048 -2.675758 0.000002 -0.000002 -5.534972 5.590465 -27.930978 1.021703 0.000000 -0.000000 -19.062373 -35.403961 14.428220 -0.000002 -0.000002 4.296926 -6.932073 33.967613 -6.719473 -0.000001 -0.000002 4.504837 -15.038144 -0.427412 -8.548671 -0.000000 1.532554 0.664106 0.000006 -0.000001 0.000002 -1.021703 0.000000 -0.000001 -5.434027 -29.068271 -30.924481 0.000000 -0.000001 4.296924 16.270417 40.202326 20.503243 0.000002 -0.000002 4.504839 32.550434 -13.120864 -1.705142 -0.000000 1.532553 0.664106 0.000009 0.000002 0.000001 
0.374632 -0.476972 -8.366834 -2.059615 11.464063 1.476723 0.000000 0.000002 -3.124064 1.019657 -4.946138 4.529882 -0.000000 0.000002 -2.490617 -2.537357 5.830107 2.309291 -0.000000 0.204342 -1.583640 -2.983477 10.052137 -3.597846 0.411487 -0.054013 -2.011039 -0.115755 -8.915326 21.638794 1.468307 -0.000000 -0.000002 8.280546 -10.019893 -8.593299 2.879112 -0.000000 -0.000002 1.829878 -9.714527 2.571780 2.675754 0.000001 0.000000 -3.934047 -9.488944 -7.843669 -0.405810 -0.054013 -2.011039 6.175516 -4.602704 -18.209448 -1.468304 -0.000000 0.000001 -20.970067 21.657487 2.170443 -2.879113 0.000001 -0.000003 -67.490540 36.193268 -47.235205 -2.675757 0.000001 -0.000001 -5.453292 5.738864 -27.889544 1.021703 0.000000 0.000001 -18.849114 -35.370671 14.727916 -0.000000 -0.000001 4.296926 -6.883528 34.265891 -7.058228 -0.000001 -0.000002 4.504838 -15.183705 -0.764762 -8.526182 0.000000 1.532551 0.664107 0.000001 0.000000 0.000001 -1.021702 0.000000 0.000000 -5.433468 -28.893206 -31.154279 -0.000002 -0.000001 4.296924 16.489158 40.188806 20.693204 0.000002 -0.000002 4.504837 32.549652 -12.894869 -1.238034 -0.000000 1.532554 0.664107 0.000000 -0.000002 0.000002 
0.381088 -0.474143 -8.360043 -1.922478 11.422316 1.445872 0.000000 0.000000 -3.124065 0.918917 -4.897419 4.605043 -0.000000 0.000002 -2.490618 -2.536108 5.873251 2.284811 -0.000000 0.204342 -1.583641 -2.980799 10.061457 -3.647805 0.411487 -0.054013 -2.011039 -0.107734 -8.926379 21.620139 1.468305 -0.000000 0.000001 8.215661 -10.081272 -8.638939 2.879110 -0.000000 -0.000001 1.800314 -9.706191 2.537733 2.675756 -0.000002 -0.000002 -3.970000 -9.478216 -7.807831 -0.405811 -0.054013 -2.011041 6.179898 -4.574551 -18.169464 -1.468305 0.000000 0.000006 -21.022120 21.556178 2.240340 -2.879112 -0.000001 -0.000001 -67.712194 36.341483 -47.225622 -2.675756 -0.000001 0.000001 -5.532303 5.799669 -27.944891 1.021703 0.000000 0.000000 -18.775014 -35.378485 14.957920 -0.000002 -0.000002 4.296926 -6.713646 34.544966 -7.382777 -0.000001 -0.000002 4.504839 -15.330788 -1.065508 -8.528040 -0.000000 1.532553 0.664107 0.000004 -0.000001 -0.000002 -1.021703 0.000000 -0.000002 -5.410913 -28.749578 -31.301763 -0.000000 -0.000001 4.296924 16.690035 40.132450 20.765853 0.000001 -0.000002 4.504840 32.482771 -12.485714 -0.610480 0.000000 1.532553 0.664107 0.000001 -0.000001 0.000000 
0.387336 -0.471806 -8.353912 -1.781152 11.409215 1.411268 -0.000000 0.000002 -3.124066 0.811324 -4.911803 4.662771 0.000000 0.000001 -2.490616 -2.524037 5.955303 2.276010 -0.000000 0.204340 -1.583642 -2.966491 10.062898 -3.677128 0.411489 -0.054013 -2.011042 -0.135307 -8.922289 21.641022 1.468304 -0.000000 -0.000000 8.209176 -10.211280 -8.717033 2.879111 -0.000000 -0.000000 1.719681 -9.653450 2.528731 2.675759 0.000001 -0.000003 -3.997099 -9.419576 -7.869688 -0.405811 -0.054013 -2.011040 6.144200 -4.582166 -18.154930 -1.468306 -0.000000 -0.000000 -21.071962 21.536879 2.397047 -2.879113 -0.000002 -0.000002 -67.792127 36.555582 -47.341715 -2.675758 0.000001 -0.000000 -5.441575 5.887719 -27.988247 1.021703 0.000000 -0.000001 -18.701548 -35.429841 15.123606 -0.000001 -0.000001 4.296926 -6.865830 34.840061 -7.420459 -0.000000 -0.000002 4.504836 -15.243760 -1.303799 -8.540638 -0.000000 1.532553 0.664107 -0.000001 -0.000003 -0.000002 -1.021703 0.000000 -0.000000 -5.406632 -28.631113 -31.446871 -0.000000 -0.000001 4.296926 16.869201 40.034392 20.834816 0.000001 -0.000002 4.504839 32.245934 -11.969114 -0.239557 -0.000000 1.532553 0.664107 0.000007 -0.000001 0.000002 
0.393390 -0.470039 -8.347843 -1.651147 11.420198 1.396284 -0.000000 0.000002 -3.124065 0.738493 -4.944917 4.757173 -0.000000 0.000001 -2.490617 -2.539893 6.020118 2.208095 0.000000 0.204343 -1.583644 -2.975944 10.070334 -3.685147 0.411487 -0.054013 -2.011040 -0.161184 -8.913433 21.584602 1.468305 -0.000000 -0.000003 8.194025 -10.216831 -8.752675 2.879112 -0.000001 -0.000000 1.647267 -9.635057 2.468795 2.675758 0.000000 -0.000002 -3.999165 -9.399971 -7.830453 -0.405812 -0.054013 -2.011039 6.126385 -4.570954 -18.172591 -1.468306 -0.000000 0.000003 -21.113571 21.391328 2.479522 -2.879112 0.000000 -0.000003 -68.050548 36.692664 -47.262580 -2.675758 0.000001 0.000001 -5.531389 5.965138 -27.896079 1.021702 0.000000 0.000000 -18.648679 -35.493259 15.247301 -0.000000 -0.000003 4.296926 -6.815070 35.102784 -7.573596 -0.000001 -0.000002 4.504838 -15.305018 -1.512861 -8.574782 -0.000002 1.532552 0.664107 0.000008 0.000001 -0.000003 -1.021702 0.000000 0.000000 -5.446633 -28.528734 -31.640872 -0.000002 -0.000001 4.296923 17.012046 39.906832 20.970033 0.000001 -0.000002 4.504841 31.922924 -11.312534 0.022097 -0.000000 1.532553 0.664107 0.000003 0.000004 -0.000000 
